<?xml version="1.0" encoding="UTF-8"?>
<svg xmlns="http://www.w3.org/2000/svg" xmlns:xlink="http://www.w3.org/1999/xlink" viewBox="0 0 100 100" width="100px" height="100px">
<g id="surface18682954">
<rect x="0" y="0" width="100" height="100" style="fill:rgb(20.392157%,28.627452%,36.862746%);fill-opacity:1;stroke:none;"/>
<path style=" stroke:none;fill-rule:nonzero;fill:rgb(100%,100%,100%);fill-opacity:1;" d="M 18 8 C 12.5 8 8 12.5 8 18 L 8 82 C 8 87.5 12.5 92 18 92 L 82 92 C 87.5 92 92 87.5 92 82 L 92 18 C 92 12.5 87.5 8 82 8 Z M 18 12 L 82 12 C 85.335938 12 88 14.664062 88 18 L 88 82 C 88 85.335938 85.335938 88 82 88 L 18 88 C 14.664062 88 12 85.335938 12 82 L 12 18 C 12 14.664062 14.664062 12 18 12 Z M 40 22 C 30.109375 22 22 30.109375 22 40 L 22 60 C 22 69.890625 30.109375 78 40 78 L 60 78 C 69.890625 78 78 69.890625 78 60 L 78 48 C 78 44.710938 75.289062 42 72 42 L 70 42 C 68.871094 42 68 41.128906 68 40 C 68 30.109375 59.890625 22 50 22 Z M 40 26 L 50 26 C 57.710938 26 64 32.289062 64 40 C 64 43.289062 66.710938 46 70 46 L 72 46 C 73.128906 46 74 46.871094 74 48 L 74 60 C 74 67.710938 67.710938 74 60 74 L 40 74 C 32.289062 74 26 67.710938 26 60 L 26 40 C 26 32.289062 32.289062 26 40 26 Z M 40 34 C 36.710938 34 34 36.710938 34 40 C 34 43.289062 36.710938 46 40 46 L 50 46 C 53.289062 46 56 43.289062 56 40 C 56 36.710938 53.289062 34 50 34 Z M 40 38 L 50 38 C 51.109375 38 52 38.890625 52 40 C 52 41.109375 51.109375 42 50 42 L 40 42 C 38.890625 42 38 41.109375 38 40 C 38 38.890625 38.890625 38 40 38 Z M 40 54 C 36.710938 54 34 56.710938 34 60 C 34 63.289062 36.710938 66 40 66 L 60 66 C 63.289062 66 66 63.289062 66 60 C 66 56.710938 63.289062 54 60 54 Z M 40 58 L 60 58 C 61.109375 58 62 58.890625 62 60 C 62 61.109375 61.109375 62 60 62 L 40 62 C 38.890625 62 38 61.109375 38 60 C 38 58.890625 38.890625 58 40 58 Z M 40 58 "/>
</g>
</svg>
